<svg width="45" height="45" viewBox="0 0 45 45" fill="none" xmlns="http://www.w3.org/2000/svg">
<path d="M45 22.3022C45 9.98443 34.927 0 22.5 0C10.073 0 0 9.98443 0 22.3022C0 24.9771 0.475313 27.5419 1.34719 29.9184C0.490781 31.3653 0 33.0491 0 34.8472C0 39.7621 3.6675 43.8281 8.4375 44.5055V25.1904C7.03547 25.3897 5.72766 25.8803 4.58156 26.601C4.34531 25.4371 4.21875 24.2328 4.21875 22.9992C4.21875 12.991 12.4031 4.87861 22.5 4.87861C32.5969 4.87861 40.7812 12.991 40.7812 22.9992C40.7812 24.2328 40.6575 25.4371 40.4198 26.601C39.2723 25.8803 37.9659 25.3883 36.5625 25.189V44.5055C41.3325 43.8295 45 39.7635 45 34.8472C45 33.0491 44.5092 31.3653 43.6528 29.9184C44.5247 27.5419 45 24.9771 45 22.3008V22.3022Z" fill="#61A568"/>
</svg>
