<svg width="45" height="45" viewBox="0 0 45 45" fill="none" xmlns="http://www.w3.org/2000/svg">
<path d="M36.5625 6.35793V0H8.4375V6.35793H0V12.7159C0 17.9834 3.77719 22.2527 8.4375 22.2527C9.31922 22.2527 10.17 22.1002 10.9702 21.8156C12.9994 25.0947 16.0945 27.4678 19.6875 28.2928V38.1476H16.875C13.7686 38.1476 11.25 40.9943 11.25 44.5055H33.75C33.75 40.9943 31.2314 38.1476 28.125 38.1476H25.3125V28.2928C28.9055 27.4678 32.0006 25.0947 34.0298 21.8156C34.8286 22.1002 35.6794 22.2527 36.5625 22.2527C41.2228 22.2527 45 17.9834 45 12.7159V6.35793H36.5625ZM8.4375 18.4777C5.62641 18.4777 3.33984 15.8932 3.33984 12.7159V9.53689H8.4375V12.7159C8.4375 14.7122 8.76375 16.6212 9.35859 18.3824C9.05906 18.4443 8.7525 18.4777 8.4375 18.4777ZM41.6602 12.7159C41.6602 15.8932 39.3736 18.4777 36.5625 18.4777C36.2475 18.4777 35.9409 18.4443 35.6414 18.3824C36.2363 16.6228 36.5625 14.7122 36.5625 12.7159V9.53689H41.6602V12.7159Z" fill="#61A568"/>
</svg>
